<?xml version="1.0" encoding="utf-8"?>
<!-- Generator: Adobe Illustrator 16.0.0, SVG Export Plug-In . SVG Version: 6.00 Build 0)  -->
<!DOCTYPE svg PUBLIC "-//W3C//DTD SVG 1.1//EN" "http://www.w3.org/Graphics/SVG/1.1/DTD/svg11.dtd">
<svg version="1.1" id="Layer_1" xmlns="http://www.w3.org/2000/svg" xmlns:xlink="http://www.w3.org/1999/xlink" x="0px" y="0px"
	 width="612px" height="252px" viewBox="0 0 612 252" enable-background="new 0 0 612 252" xml:space="preserve">
<g>
	<g>
		<path fill="#616161" d="M272.646,63.596h35.115v45.225c-5.684,1.837-11.049,3.119-16.067,3.854
			c-5.032,0.735-10.162,1.109-15.416,1.109c-13.35,0-23.553-3.867-30.596-11.61c-7.042-7.742-10.564-18.847-10.564-33.334
			c0-14.085,4.09-25.062,12.269-32.942c8.166-7.871,19.492-11.812,33.979-11.812c9.081,0,17.842,1.788,26.271,5.372l-6.238,14.792
			c-6.446-3.175-13.17-4.769-20.143-4.769c-8.124,0-14.612,2.689-19.505,8.055c-4.88,5.371-7.32,12.594-7.32,21.664
			c0,9.469,1.968,16.702,5.906,21.692c3.937,4.994,9.648,7.489,17.163,7.489c3.909,0,7.888-0.395,11.922-1.191V78.99h-16.774V63.596
			z"/>
		<path fill="#616161" d="M358.002,113.783c-10.896,0-19.408-2.967-25.536-8.9c-6.142-5.926-9.205-14.316-9.205-25.179
			c0-11.188,2.828-19.824,8.512-25.931c5.656-6.107,13.503-9.16,23.513-9.16c9.565,0,17.01,2.686,22.333,8.058
			c5.323,5.365,7.999,12.789,7.999,22.258v8.831h-43.655c0.208,5.174,1.761,9.215,4.672,12.112
			c2.897,2.911,6.974,4.367,12.214,4.367c4.09,0,7.943-0.43,11.576-1.262c3.632-0.832,7.416-2.163,11.367-3.993v14.078
			c-3.216,1.595-6.668,2.78-10.342,3.55C367.775,113.396,363.298,113.783,358.002,113.783z M355.396,57.564
			c-3.909,0-6.973,1.224-9.191,3.667c-2.218,2.447-3.493,5.92-3.813,10.411h25.911c-0.084-4.491-1.275-7.964-3.577-10.411
			C362.425,58.788,359.319,57.564,355.396,57.564z"/>
		<path fill="#616161" d="M462.129,79.108c0,10.858-2.912,19.356-8.721,25.483c-5.809,6.128-13.904,9.191-24.274,9.191
			c-6.502,0-12.228-1.407-17.19-4.214c-4.963-2.801-8.775-6.835-11.437-12.082c-2.676-5.254-3.993-11.375-3.993-18.379
			c0-10.903,2.884-19.378,8.651-25.425c5.767-6.049,13.877-9.07,24.329-9.07c6.502,0,12.228,1.39,17.19,4.176
			c4.963,2.79,8.775,6.783,11.438,11.992C460.798,65.997,462.129,72.104,462.129,79.108z M415.34,79.108
			c0,6.603,1.096,11.6,3.286,14.976c2.204,3.383,5.78,5.074,10.758,5.074c4.921,0,8.456-1.685,10.619-5.047
			c2.148-3.358,3.229-8.359,3.229-15.003c0-6.606-1.081-11.556-3.258-14.865c-2.189-3.296-5.753-4.949-10.716-4.949
			c-4.922,0-8.484,1.64-10.661,4.925C416.422,67.498,415.34,72.468,415.34,79.108z"/>
	</g>
	<g>
		<path fill="#616161" d="M272.646,175.918h35.115v45.222c-5.684,1.837-11.049,3.12-16.067,3.854
			c-5.032,0.734-10.162,1.109-15.416,1.109c-13.35,0-23.553-3.883-30.596-11.611c-7.042-7.742-10.564-18.847-10.564-33.334
			c0-14.085,4.09-25.064,12.269-32.938c8.166-7.874,19.492-11.812,33.979-11.812c9.081,0,17.842,1.788,26.271,5.365l-6.238,14.799
			c-6.446-3.182-13.17-4.775-20.143-4.775c-8.124,0-14.612,2.689-19.505,8.054c-4.88,5.379-7.32,12.602-7.32,21.669
			c0,9.468,1.968,16.705,5.906,21.695c3.937,4.99,9.648,7.486,17.163,7.486c3.909,0,7.888-0.396,11.922-1.192v-18.202h-16.774
			V175.918z"/>
		<path fill="#616161" d="M358.002,226.104c-10.896,0-19.408-2.967-25.536-8.9c-6.142-5.927-9.205-14.321-9.205-25.176
			c0-11.188,2.828-19.824,8.512-25.938c5.656-6.101,13.503-9.157,23.513-9.157c9.565,0,17.01,2.683,22.333,8.062
			c5.323,5.365,7.999,12.781,7.999,22.25v8.831h-43.655c0.208,5.178,1.761,9.22,4.672,12.116c2.897,2.912,6.974,4.36,12.214,4.36
			c4.09,0,7.943-0.423,11.576-1.255c3.632-0.832,7.416-2.162,11.367-3.992v14.078c-3.216,1.594-6.668,2.779-10.342,3.549
			C367.775,225.708,363.298,226.104,358.002,226.104z M355.396,169.888c-3.909,0-6.973,1.22-9.191,3.66
			c-2.218,2.454-3.493,5.919-3.813,10.411h25.911c-0.084-4.492-1.275-7.957-3.577-10.411
			C362.425,171.107,359.319,169.888,355.396,169.888z"/>
		<path fill="#616161" d="M428.108,226.104c-21.072,0-31.595-11.403-31.595-34.201c0-11.34,2.856-20.004,8.582-25.993
			c5.739-5.982,13.946-8.977,24.648-8.977c7.818,0,14.848,1.504,21.059,4.54l-5.449,14.085c-2.896-1.157-5.614-2.101-8.109-2.842
			c-2.495-0.734-5.005-1.103-7.5-1.103c-9.607,0-14.404,6.717-14.404,20.172c0,13.052,4.797,19.567,14.404,19.567
			c3.549,0,6.834-0.458,9.856-1.4c3.036-0.929,6.059-2.398,9.081-4.381v15.568c-2.981,1.879-5.989,3.168-9.039,3.882
			C436.593,225.742,432.738,226.104,428.108,226.104z"/>
		<path fill="#616161" d="M482.105,188.617l8.055-10.141l18.937-20.289h20.823l-26.867,28.939l28.503,37.777h-21.308l-19.492-27.041
			l-7.93,6.28v20.761h-18.452v-92.863h18.452v41.424l-0.971,15.152H482.105z"/>
		<path fill="#616161" d="M601.634,191.432c0,10.854-2.897,19.353-8.72,25.48c-5.809,6.113-13.905,9.191-24.274,9.191
			c-6.488,0-12.228-1.408-17.19-4.215c-4.963-2.801-8.775-6.835-11.438-12.082s-3.992-11.375-3.992-18.375
			c0-10.904,2.883-19.381,8.65-25.426c5.767-6.051,13.877-9.073,24.33-9.073c6.502,0,12.241,1.394,17.204,4.18
			s8.775,6.779,11.437,11.991C600.303,178.316,601.634,184.43,601.634,191.432z M554.846,191.432c0,6.599,1.095,11.596,3.299,14.972
			c2.19,3.383,5.781,5.074,10.744,5.074c4.922,0,8.457-1.685,10.619-5.046c2.163-3.355,3.244-8.36,3.244-15
			c0-6.613-1.095-11.563-3.271-14.861c-2.177-3.3-5.753-4.957-10.717-4.957c-4.921,0-8.47,1.644-10.646,4.929
			C555.927,179.813,554.846,184.791,554.846,191.432z"/>
	</g>
	<line fill="none" stroke="#E3794B" stroke-width="2" stroke-miterlimit="10" x1="198.589" y1="230.456" x2="198.589" y2="19.413"/>
	<path fill="#DF5B26" d="M163.28,100.17L163.28,100.17c0.139-1.38-61.358-0.098-61.192-0.957c0.444-2.398,1.386-4.048,2.648-5.198
		c2.246-1.463,4.908-1.909,7.167-2.132c1.594-0.246,6.266,0.582,8.234,1.119c1.387,0.375,3.078,0.701,5.851,0.34
		c3.618-0.464,6.571-3.465,7.417-7.243c1.165-5.144-2.052-10.252-7.181-11.423c-2.634-0.597-5.143,0.121-7.347,1.313
		c-2.593,1.424-7.417,6.841-14.917,8.331c-1.345,0.17-2.26-0.072-2.495-0.994c-1.04-4.114,6.488-13.939,7.555-15.08
		c1.234-1.355,2.523-2.783,3.188-5.428c1.317-5.102-1.761-10.311-6.876-11.617c-5.102-1.31-10.3,1.771-11.604,6.884
		c-0.679,2.599-0.152,4.384,0.069,6.082c0.208,1.591-0.167,6.484-0.485,7.989c-1.386,6.27-3.577,13.104-8.997,13.222
		c-3.618,0.065-7.25-6.551-8.484-8.945c-1.816-5.032,0.915-8.728-3.688-13.357c-3.715-3.75-10.55-1.511-13.863,3.307
		c-2.592,3.767-2.371,9.413,0.957,13.741c0.915,1.21,6.46,5.851,8.11,7.07c5.074,3.758,10.467,6.96,9.926,9.607
		c-1.192,5.643-7.417,5.56-13.642,5.497c-0.291-0.063-12.103-1.837-15.541,1.511c-4.422,4.305-3.091,11.416,1.151,14.536
		c6.169,4.533,12.546-1.304,13.738-1.969c5.559-4.741,13.988-5.032,15.942-5.061c17.315-0.222,39.718,1.442,40.911,5.213
		c3.382,10.771-1.165,20.115-15.125,27.297c-1.026,0.43-2.093,0.831-3.216,1.199c-4.076,1.005-8.29,1.56-12.518,1.594h-0.125
		c-0.679,0.007-1.373-0.007-2.052-0.027c-0.152,0-0.305-0.007-0.444-0.014c-0.582-0.021-1.164-0.049-1.719-0.091
		c-0.264-0.014-0.513-0.034-0.776-0.063c-0.471-0.041-0.929-0.076-1.414-0.131c-0.347-0.042-0.693-0.091-1.054-0.139
		c-0.374-0.049-0.749-0.098-1.123-0.152c-0.43-0.07-0.873-0.146-1.303-0.229c-0.292-0.034-0.568-0.104-0.86-0.159
		c-0.527-0.097-1.026-0.208-1.539-0.318c-0.208-0.056-0.43-0.104-0.652-0.139c-0.568-0.152-1.137-0.306-1.705-0.458
		c-0.152-0.042-0.305-0.076-0.443-0.125c-0.624-0.18-1.262-0.367-1.886-0.568c-0.097-0.027-0.18-0.056-0.277-0.097
		c-0.666-0.208-1.345-0.457-1.997-0.7c-0.055-0.021-0.097-0.042-0.152-0.042c-0.693-0.277-1.4-0.555-2.093-0.866
		c0,0-0.014,0-0.028,0c-0.194-0.056-0.471-0.18-0.804-0.347c-2.897-1.289-5.726-2.869-8.429-4.727
		c-2.689-1.872-5.157-3.951-7.403-6.197c-0.277-0.257-0.485-0.465-0.61-0.624c-0.014-0.014-0.014-0.027-0.014-0.027
		c-0.541-0.541-1.04-1.103-1.553-1.671c-0.014-0.027-0.055-0.063-0.083-0.104c-0.471-0.541-0.929-1.074-1.386-1.629
		c-0.056-0.069-0.111-0.146-0.167-0.215c-0.416-0.514-0.818-1.04-1.206-1.566c-0.097-0.118-0.18-0.236-0.277-0.375
		c-0.347-0.471-0.693-0.956-1.026-1.441c-0.125-0.194-0.236-0.36-0.36-0.555c-0.291-0.43-0.583-0.859-0.846-1.317
		c-0.167-0.242-0.319-0.499-0.458-0.748c-0.236-0.374-0.458-0.763-0.666-1.151c-0.194-0.318-0.374-0.665-0.554-0.99
		c-0.167-0.313-0.333-0.624-0.5-0.93c-0.222-0.422-0.416-0.853-0.624-1.275c-0.125-0.229-0.222-0.464-0.333-0.699
		c-0.25-0.521-0.471-1.04-0.707-1.567c-0.055-0.152-0.111-0.276-0.166-0.43c-0.264-0.624-0.513-1.261-0.749-1.906
		c-0.014-0.034-0.028-0.076-0.042-0.117c-5.878-15.908-4.187-34.318,6.169-49.333c13.988-20.271,39.372-27.982,61.594-20.479
		c4.561,1.58,8.983,3.791,13.17,6.654c4.173,2.896,7.805,6.256,10.91,9.946c3.702,4.52,6.585,9.542,8.623,14.858h22.028
		c-4.436-16.512-14.515-31.611-29.695-42.082C97.291,7.858,50.877,16.297,27.379,50.064c-0.818,1.203-1.594,2.364-2.301,3.512
		c-1.913,3.088-3.563,6.272-4.977,9.52c-12.103,27.932-5.088,53.71,7.237,71.773c10.536,17.897,29.016,45.201,61.206,95.587h0.541
		c35.905-56.194,54.759-83.692,64.533-101.437c3.688-6.045,6.183-12.138,7.75-18.105c0-0.014,0.014-0.028,0.014-0.042
		c0.014-0.048,0.028-0.097,0.042-0.152c0.61-2.37,1.095-4.728,1.442-7.042c0,0-0.028-0.015-0.028-0.028
		C163.016,102.492,163.169,101.32,163.28,100.17"/>
</g>
<g>
	<path fill="#03784C" d="M146.825-283.148v-3.507c5.31-0.476,9.189-0.97,9.676-3.01c0.428-2.219,0.428-3.971,0.34-7.076
		l-0.044-53.822c0-3.038-0.089-4.79-0.399-7.028c-0.494-2.047-4.41-2.664-9.706-2.95v-3.676l36.515-0.07l-0.021,3.581
		c-5.171,0.452-9.146,0.995-9.588,3.116c-0.464,2.139-0.501,3.875-0.464,7.028l0.082,53.822c0,3.067,0,4.808,0.529,6.992
		c0.429,2.124,4.485,2.854,10.091,2.986c4.351-0.181,8.916-0.955,9.358-2.986c0.523-2.242,0.523-3.987,0.406-7.081v-30.615
		c-0.044-5.8-3.135-6.604-9.072-6.604v-3.551c7.847-0.129,17.922-1.541,24.162-4.893l0.207,0.151l0.008,11.822h0.302l4.882-6.682
		c2.625-3.643,5.354-5.291,8.127-5.291c1.704,0,3.466,0.63,5.281,3.646l3.761,6.048c0.634,1.316,0,2.419-0.634,3.499l-3.061,3.286
		c-1.054,1.608-1.895,0.881-3.229,0.346l-5.495-2.521c-1.328-0.715-3.01-1.17-4.662-1.111c-3.215,0-5.191,4.167-5.191,16.208
		l0.015,16.206c-0.015,3.098,0.095,4.895,0.457,7.03c0.531,2.139,4.483,2.725,9.684,3.046v3.519L146.825-283.148z"/>
	<path fill="#03784C" d="M258.886-342.493l0.052,45.509c0,3.086,0.088,4.863,0.494,7.128c0.427,2.032,4.396,2.566,8.437,2.913
		l0.06,3.548l-33.41,0.104l-0.073-3.537c4.1-0.361,8.179-0.996,8.621-3.075c0.509-2.179,0.509-3.994,0.509-7.028v-30.63
		c-0.117-5.764-3.149-6.678-9.249-6.638v-3.491c7.996-0.192,18.048-1.664,24.338-4.949L258.886-342.493z"/>
	<path fill="#03784C" d="M250.138-365.736c5.052-0.034,8.445,3.738,8.445,8.432c0,4.529-3.371,8.298-8.445,8.36
		c-4.668,0-8.497-3.599-8.497-8.36C241.686-361.998,245.411-365.736,250.138-365.736"/>
	<path fill="#03784C" d="M272.574-299.355h3.171c1.026,7.5,6.734,12.987,13.334,12.987c6.519-0.084,9.338-4.885,9.338-9.303
		c-0.075-6.034-3.268-8.644-12.421-15.153c-10.133-6.969-12.773-10.17-12.773-16.975c0-9.404,9.028-14.887,20.386-14.887
		c4.69,0,10.089,0.439,15.944,1.888l0.03,12.893h-3.157c-1.283-4.938-4.734-10.411-11.054-10.359c-4.632,0-7.517,2.854-7.517,7.409
		c0,4.76,5.104,7.78,14.139,14.563c9.478,7.124,11.056,11.884,11.026,17.128c0.103,12.863-11.859,17.125-22.879,17.167
		c-6.535,0-12.404-1.214-17.486-3.101L272.574-299.355z"/>
	<path fill="#03784C" d="M340.39-368.458l0.08,35.853c4.927-5.757,13.247-10.163,22.717-10.163
		c13.003-0.123,16.564,8.23,16.564,20.373l0.089,25.165c0,3.105,0.044,4.857,0.457,7.107c0.495,2.124,4.559,2.555,8.615,2.935v3.499
		l-32.556,0.1v-3.547c3.32-0.336,7.184-0.863,7.671-2.987c0.405-2.25,0.369-4.001,0.405-7.065l-0.036-22.171
		c-0.029-8.002-1.069-16.1-10.06-16.052c-9.729,0-13.867,7.663-13.837,23.239l-0.03,15.05c0.03,3.105,0.046,4.893,0.532,7.021
		c0.428,2.103,4.395,2.63,7.81,3.069v3.444l-32.797,0.125v-3.509c4.101-0.403,8.098-0.992,8.614-3.018
		c0.428-2.238,0.428-3.99,0.428-7.094l-0.044-56.816c0-3.102-0.627-7.62-5.754-7.62h-3.407v-3.565
		c11.735-0.358,19.146-1.751,24.191-3.666L340.39-368.458z"/>
	<path fill="#03784C" d="M461.138-314.85l-11.564-33.827h-0.214l-12.435,33.941L461.138-314.85z M462.354-283.819v-3.518
		c6.35-0.041,7.316-3.636,5.517-8.732l-4.801-13.542l-28.182,0.067l-4.712,13.777c-1.527,4.901,0.065,8.573,5.405,8.474l0.03,3.511
		l-22.583,0.096v-3.507c3.34,0,7.493-2.04,9.986-7.225c4.13-8.569,18.261-46.271,27.863-71.761l7.597-0.04
		c6.977,19.116,21.102,57.209,25.356,68.258c2.346,6.105,5.908,10.531,10.797,10.583c4.107,0,7.885-1.128,8.467-3.064
		c0.311-2.217,0.295-3.976,0.295-7.082l-0.029-30.617c0-5.724-2.979-6.638-9.094-6.638v-3.481c7.885-0.221,17.974-1.557,24.28-4.92
		l0.169,0.145l0.073,45.472c0.074,3.146,0,4.853,0.502,7.122c0.457,2.036,4.365,2.574,8.467,2.968l0.06,3.547L462.354-283.819z"/>
	<path fill="#03784C" d="M509.97-366.316c4.993,0,8.503,3.736,8.57,8.394c-0.067,4.513-3.519,8.341-8.512,8.341
		c-4.809-0.046-8.511-3.587-8.511-8.259C501.518-362.58,505.22-366.316,509.97-366.316"/>
	<path fill="#03784C" d="M576.045-282.676c-1.703-3.094-1.954-6.022-2.072-9.179l-7.611,5.487c-4.588,2.775-6.195,3.788-9.912,3.788
		c-18.328,0.049-26.848-16.291-26.848-29.943c-0.088-19.167,13.432-30.703,30.462-30.703c4.425,0,9.631,0.098,13.806,1.855v-13.051
		c-0.074-3.167-0.648-7.619-5.694-7.619h-3.37v-3.581c11.683-0.314,19.072-1.708,24.17-3.563l0.234,0.203l0.104,67.875
		c0,8.241,1.933,11.992,8.23,10.133l0.738,3.78L576.045-282.676z M573.869-331.851c-2.654-5.262-6.74-7.095-12.096-7.095
		c-10.635,0-15.871,10.078-15.871,23.634c0.089,11.535,5.192,24.058,16.388,24.003c5.612,0.055,11.683-4.456,11.683-11.535
		L573.869-331.851z"/>
	<path fill="#184780" d="M78.928-430.226l1.932,0.494c7.567,12.62,17.539,21.097,26.861,21.057c3.386,0,9.183-4.429,15.489-4.363
		c9.426,0.048,16.8,8.401,12.523,18.714l-1.18-1.349c2.809-5.208,0.163-16.3-11.239-16.3c-7.125,0-11.034,4.318-15.696,4.318
		c-11.992,0.085-22.096-12.515-27.347-21.108c-0.797,0.746-14.346,13.382-14.346,13.382c7.869,12.561,19.243,22.473,30.748,22.473
		c15.694-0.052,19.678-8.261,24.729-8.261c2.293,0,3.296,2.25,3.444,3.404l-1.239,0.443c-0.294-1.741-1.01-2.777-2.227-2.777
		c-4.602,0-8.364,8.39-24.708,8.39c-10.134,0.074-20.931-7.409-30.356-21.102l-0.716,0.837l-2.588-3.636L78.928-430.226z"/>
	<path fill="#184780" d="M50.46-299.706c5.413,9.183,10.502,15.013,10.458,19.667c0.045,2.064-0.235,2.744-0.944,2.744
		c-0.457,0.058-1.334-1.004-2.891-1.063c-2.036,0.06-3.776,1.402-3.732,3.74c0,2.914,2.588,4.358,5.604,3.739
		c-0.633,1.889,0.296,4.064,3.666,4.064c7.973-0.096,21.336-10.376,25.555-20.157l-1.659-0.457
		c-3.68,10.296-17.59,19.486-24.125,19.486c-3.008,0-3.008-2.737-1.962-4.47c-0.545,0.266-1.984,0.517-2.456,0.517
		c-2.279,0-3.223-1.401-3.223-2.817c0-1.594,1.078-2.581,2.124-2.61c1.682,0.03,2.485,1.298,3.423,1.298
		c1.386,0.052,2.042-1.268,2.02-4.087c-0.06-4.984-5.332-10.896-10.841-20.223L50.46-299.706z"/>
	<rect x="8" y="-456.039" fill="none" width="737.123" height="354.039"/>
	<path fill="#184780" d="M56.331-400.474c3.761-5.288,7.692-9.304,10.621-12.192l-0.517-0.766
		c-3.097,3.116-6.881,7.323-10.664,12.468L56.331-400.474z"/>
	<path fill="#184780" d="M52.112-395.672c-7.789,11.974-14.618,28.133-14.581,47.54c0.081,18.741,3.96,30.759,9.823,42.799
		l0.716-0.807c-5.753-11.653-9.744-23.893-9.802-41.992c-0.022-19.167,6.74-35.212,14.279-47.108L52.112-395.672z"/>
	<rect x="37.531" y="-430.226" fill="none" width="560.75" height="296.703"/>
	<path fill="#184780" d="M76.273-401.525c-12.45,12.777-21.824,29.092-21.742,54.744c0.03,29.766,14.766,48.041,26.329,58.57
		l0.775-1.383c-15.865-12.714-25.865-33.745-26.006-57.187c-0.065-23.86,9.559-42.781,21.824-53.744L76.273-401.525z"/>
	<path fill="#184780" d="M119.92-392.332c2.839-4.833,4.869-7.021,9.292-7.021c3.865-0.062,6.845,2.711,6.845,6.926
		c1.623,2.231,0.804,5.929,0,8.382l-35.785,99.917l-19.412-4.083l0.783-1.383l17.877,3.92l35.549-98.692
		c0.937-3.021,1.247-4.994,0-7.66c0-3.883-1.992-6.362-6.21-6.272c-4.698-0.089-6.261,2.813-8.289,6.32L119.92-392.332z"/>
	<path fill="#184780" d="M69.348-301.498l50.572-90.834c0.944-1.759,1.918-2.374,3.394-2.456c1.386,0.082,1.954,1.209,1.954,2.36
		c0,0.447-0.303,0.79-1.129,3.068L81.804-288.828l-0.944-0.239l42.645-100.455c0.656-1.745,1.018-2.379,1.048-2.811
		c-0.03-1.01-0.634-1.759-1.38-1.759c-1.239,0.067-1.866,0.687-2.603,2.111l-50.772,90.962L69.348-301.498z"/>
	<path fill="#184780" d="M112.987-403.579c0.648,0.921,1.46,1.453,3.474,1.453c2.19,0,3.606-2.187,3.873-3.831
		c0.236,2.083,1.784,3.233,3.414,3.233c0.805,0,2.294-0.221,3.165-0.9c-0.222,0.192-0.473,1.266-0.443,1.966
		c-0.029,1.185,0.952,2.246,2.302,2.876l3.688,1.07l-1.498-0.875c-1.748-0.531-3.643-1.313-3.569-3.108
		c0-1.39,0.436-2.773,1.468-3.88l-0.738-0.63c-0.855,1.453-2.301,2.626-4.1,2.626c-1.904,0-3.009-1.107-2.84-4.075l-1.113-0.118
		c-0.265,1.955-1.114,4.875-3.716,4.875c-1.653,0.078-2.966-0.682-3.394-2.77l-1.121,0.436c0.517,1.936-0.729,5.104-4.093,5.038
		c-3.281,0-3.857-2.431-3.179-3.681l-2.846-0.762c-0.355,1.297-1.896,2.404-3.644,2.511c-1.564,0-3.606-1.361-3.606-3.403
		c0-0.676,0.435-1.594,1.157-2.125l-2.316-1.553c-0.42,0.831-1.851,1.638-4.034,1.638c-1.6,0-3.517-1.789-3.421-3.824
		c0-1.063,0.441-1.753,1.364-2.718l-3.481-3.445c-0.479,0.539-1.438,1.409-2.795,1.409c-1.489,0-2.316-1.121-3.555-3.268
		c-0.258,0.501-2.692,2.781-3.37,3.268c1.947,1.175,2.891,1.973,2.891,3.632c0,1.024-0.495,1.935-1.57,2.728l4.02,4.211
		c0.486-0.63,1.77-1.445,3.046-1.445c3.046,0,3.694,4.362,2.235,5.499l4.115,2.459c0.553-1.169,1.667-2.346,3.378-2.39
		c1.984,0,3.193,2.334,2.773,4.318l3.127,0.394c0-1.847,1.511-2.828,2.935-2.828c1.122,0.063,2.788,0.98,3.187,2.736l0.869-0.406
		c-0.559-2.175-2.47-2.957-3.99-2.891c-1.511-0.066-3.141,0.527-3.775,2.459l-1.276-0.1c0.163-1.889-1.481-4.358-3.555-4.358
		c-1.784,0-3.098,0.778-3.849,1.999l-2.722-1.608c1.099-1.209,0.471-5.958-3.416-5.958c-0.966,0-2.131,0.38-2.847,0.921
		l-3.259-3.074c0.796-0.586,1.577-1.59,1.519-2.666c0.058-1.737-0.996-2.612-2.479-3.736l2.08-1.844
		c0.811,1.795,2.19,2.71,3.489,2.71c0.863-0.04,1.97-0.652,2.574-1.187l2.529,2.61c-0.597,0.72-1.157,1.689-1.157,2.711
		c0,2.042,1.946,4.553,4.388,4.517c1.247,0.036,3.296-0.439,4.197-1.567l0.885,0.789c-0.391,0.49-0.708,1.147-0.708,2.083
		c0.022,1.996,2.087,3.906,4.233,3.906c1.978,0,3.629-0.992,4.161-2.103l1.364,0.377c-0.42,1.899,1.74,3.79,4.314,3.79
		C111.188-399.503,112.685-401.975,112.987-403.579"/>
	<path fill="#184780" d="M80.595-421c0.354,0,1.165,0.347,1.179,1.107c0,0.487-0.302,0.689-0.648,0.741
		c-0.708-0.052-1.173-0.521-1.173-1.185C79.887-420.852,80.226-421,80.595-421"/>
	<path fill="#184780" d="M89.003-412.175c0.428-0.096,1.077,0.3,1.077,1.07c0,0.443-0.354,0.671-0.649,0.671
		c-0.539,0.058-1.209-0.373-1.209-1.113C88.222-411.973,88.576-412.211,89.003-412.175"/>
	<path fill="#184780" d="M98.295-406.197c0.421,0,0.958,0.088,0.958,0.925c0,0.473-0.265,0.779-0.737,0.779
		c-0.531,0-1.062-0.461-1.062-1.081C97.528-406.068,97.831-406.29,98.295-406.197"/>
	<path fill="#184780" d="M108.268-404.8c0.442,0,0.855,0.306,0.855,0.648c0,0.568-0.545,0.716-0.974,0.716
		c-0.324,0.1-0.796-0.147-0.796-0.634C107.353-404.464,107.721-404.8,108.268-404.8"/>
	<path fill="#184780" d="M116.069-407.311c0.532,0.059,0.827,0.291,0.886,0.615c0.058,0.628-0.296,0.878-0.886,0.878
		c-0.545,0.056-0.788-0.28-0.788-0.634C115.282-407.02,115.916-407.226,116.069-407.311"/>
	<path fill="#184780" d="M123.696-406.935c0-0.575,0.413-0.918,0.856-0.918c0.501,0,0.708,0.343,0.708,0.689
		c0.015,0.523-0.383,1.018-0.915,0.966C123.844-406.197,123.696-406.64,123.696-406.935"/>
	<path fill="#184780" d="M130.954-402.819c0.354,0,1.002,0.203,1.002,0.94c0.104,0.357-0.545,0.626-0.958,0.626
		c-0.457,0-1.018-0.269-0.958-0.726C130.039-402.513,130.629-402.819,130.954-402.819"/>
	<path fill="#184780" d="M73.353-413.96c0.442,0.089,0.855,0.528,0.855,1.222c0,0.467-0.414,0.762-0.752,0.71
		c-0.65,0-0.958-0.483-1.018-0.966C72.498-413.684,72.91-413.871,73.353-413.96"/>
	<path fill="#184780" d="M81.421-403.929c0.443,0,0.767,0.35,0.767,0.889c0,0.221-0.191,0.587-0.59,0.587
		c-0.545,0-0.915-0.366-0.869-0.797C80.639-403.734,81.126-403.929,81.421-403.929"/>
	<path fill="#184780" d="M91.458-398.302c0.436-0.082,0.827,0.302,0.856,0.69c-0.03,0.439-0.362,0.579-0.805,0.579
		c-0.28,0-0.678-0.203-0.716-0.634C90.794-398.1,91.098-398.302,91.458-398.302"/>
	<path fill="#184780" d="M101.031-397.034c0.524-0.096,0.886,0.299,0.886,0.675c0,0.45-0.48,0.744-0.938,0.782
		c-0.412-0.038-0.736-0.38-0.736-0.726C100.244-396.734,100.649-397.034,101.031-397.034"/>
	<path fill="#184780" d="M73.021-290.523l-0.435,0.926c-2.7-1.807-5.805,1.489-3.01,3.771l-0.501,0.728
		c-2.773-2.04-4.957,1.507-2.456,3.636l-0.318,0.744c-4.07-3.278-1.062-6.711,1.461-5.804
		C66.301-289.376,69.488-292.231,73.021-290.523"/>
	<path fill="#184780" d="M75.182-283.687l-1.306-2.861l-9.152,11.929c6.018-0.626,11.549-4.756,14.971-9.068
		C78.264-283.291,76.413-283.395,75.182-283.687l0.561-0.893c1.334,0.258,3.186,0.366,4.808-0.114l0.31,0.479
		c-5.634,7.7-11.1,9.837-17.309,10.62l-0.192-0.339l10.133-13.736l0.604-0.296l1.646,3.386L75.182-283.687z"/>
	<path fill="#184780" d="M44.899-301.498c0.082,2.231,1.511,3.249,3.474,3.249c3.976-0.048,5.819-6.402,5.767-10.142
		c0-5.97-7.065-19.448-7.065-38.907c-0.133-24.937,11.904-40.804,11.904-46.398c0-5.03-2.346-8.364-5.185-8.364
		c-2.537,0-3.761,1.535-3.761,3.471c0.022,3.632,6.489,4.498,5.678,13.736l0.811-2.419c-0.332-7.04-5.487-9.127-5.561-11.316
		c0.074-1.793,1.269-2.579,2.744-2.539c2.485-0.04,4.3,3.416,4.33,7.354c0.066,5.479-11.94,21.879-11.94,46.512
		c0.133,19.511,7.08,32.71,7.08,38.871c0.044,3.982-1.696,9.227-4.69,9.227c-1.799,0-2.493-0.918-2.493-2.334
		c-0.045-3.053,6.122-6.054,6.106-13.879l-0.523-1.741C51.728-307.745,44.98-305.041,44.899-301.498"/>
	<polygon fill="#184780" points="46.521,-345.016 56.345,-335.649 50.054,-323.226 49.782,-324.453 55.136,-335.461 
		46.684,-343.709 	"/>
	<polygon fill="#184780" points="49.206,-366.964 55.991,-355.219 46.558,-345.056 46.684,-346.248 54.885,-355.352 
		49.014,-365.622 	"/>
	<polygon fill="#184780" points="56.766,-388.153 60.46,-375.298 49.162,-367.3 49.486,-368.491 59.391,-375.62 56.263,-386.94 	"/>
	<path fill="#184780" d="M68.971-392.619v-0.042l-0.841,0.269c-0.575,0.155-1.179,0.27-1.784,0.222
		c-1.881,0.078-3.688-1.173-4.67-4.326l-0.634,0.192c0.554,3.259,2.729,4.553,4.559,4.855l-8.614,3.042l-0.302,0.878l12.139-4.278
		l0.678-1.018C69.348-392.76,69.178-392.696,68.971-392.619"/>
	<path fill="#184780" d="M50.305-323.137c1.306,0.52,9.056,4.654,10.746,5.151c-1.165,2.67-3.363,12.42-3.746,13.275
		c1.356-1.161,3.126-2.134,5.59-2.23c0.869,0.055,1.983,0.203,2.744,0.405l0.316,0.664c-1.099-0.225-1.763-0.38-3.016-0.38
		c-2.257,0-4.795,1.34-6.491,3.503l-0.539-0.446c0.612-2.33,3.606-13.541,3.902-14.26c-1.586-0.586-8.777-4.672-9.366-4.865
		L50.305-323.137z"/>
	<path fill="#184780" d="M42.672-318.188c4.1-1.515,5.893,1.601,5.893,3.3c0,2.187-0.99,3.112-2.87,4.023l-0.516-0.912
		c1.505-0.538,2.537-1.219,2.537-3.064c0-1.748-1.726-3.769-4.632-2.463L42.672-318.188z"/>
	<path fill="#184780" d="M38.577-357.104c1.602,0.339,4.419,1.704,4.419,4.856c0,3.057-1.549,5.466-4.831,5.466l-0.022-0.956
		c2.951,0.191,4.1-2.519,4.02-4.314c0.08-2.423-1.483-3.976-3.586-4.404V-357.104z"/>
	<path fill="#184780" d="M50.054-391.756c1.63,0.881,2.588,1.943,2.588,3.885c0.038,2.298-1.733,3.825-3.909,3.825
		c-0.723-0.037-1.88-0.328-2.324-0.667l0.362-0.859c0.495,0.417,1.431,0.72,1.962,0.72c2.021,0,3.215-1.648,3.215-3.018
		c0-1.541-0.487-2.215-2.167-3.351L50.054-391.756z"/>
	<path fill="#184780" d="M68.661-401.127c0.104,2.147-1.519,3.364-3.473,3.416c-2.426-0.052-3.4-1.797-3.503-3.456l-0.487,0.159
		c0,1.891,1.195,3.731,4.093,3.731c1.453,0,4.197-0.827,4.197-3.851H68.661z"/>
	<path fill="#184780" d="M69.488-401.127c0-2.497-2.147-3.905-4.227-3.863c-1.762,0.036-4.063,1.167-4.063,3.982l0.487-0.159
		c0.052-1.829,1.652-3.238,3.555-3.3c1.933,0,3.525,1.173,3.422,3.34H69.488z"/>
	<path fill="#184780" d="M67.444-295.933c0,2.04-1.143,4.049-4.271,4.005c-2.61,0-4.852-1.854-4.779-4.902l-0.773-0.151
		c0.081,4.116,3.141,5.971,5.45,6.008c3.23-0.037,5.421-1.785,5.34-4.96H67.444z"/>
	<path fill="#184780" d="M68.411-295.933c0.082-3.382-2.456-5.7-5.929-5.612c-2.596-0.06-4.89,1.648-4.86,4.564l0.773,0.151
		c0-1.608,0.944-4.129,3.998-4.129c2.544,0,5.089,1.644,5.052,5.026H68.411z"/>
	<polygon fill="#184780" points="38.07,-340.689 46.625,-341.91 46.772,-341.037 38.143,-339.769 	"/>
	<polygon fill="#184780" points="41.225,-322.319 49.914,-324.354 50.054,-323.52 41.366,-321.437 	"/>
	<polygon fill="#184780" points="38.143,-339.628 38.659,-340.48 49.604,-324.498 49.206,-323.82 	"/>
	<polygon fill="#184780" points="39.47,-363.457 47.893,-361.773 47.672,-360.928 39.368,-362.432 	"/>
	<polygon fill="#184780" points="45.105,-381.026 53.174,-378.211 52.894,-377.478 44.692,-380.195 	"/>
	<polygon fill="#184780" points="39.153,-363.409 52.422,-378.113 52.894,-377.478 39.543,-362.878 	"/>
	<polygon fill="#184780" points="92.572,-332.393 103.938,-354.581 104.624,-354.139 93.148,-332.12 	"/>
	<polygon fill="#184780" points="102.138,-360.05 115.554,-370.489 115.244,-369.579 101.556,-358.9 	"/>
	<polygon fill="#184780" points="70.321,-302.571 96.776,-326.005 96.142,-324.494 69.657,-300.826 	"/>
	<polygon fill="#184780" points="82.402,-291.4 87.262,-333.079 86.17,-330.947 81.222,-289.281 	"/>
	<polygon fill="#184780" points="115.805,-370.489 116.379,-385.573 115.916,-384.765 115.288,-369.457 	"/>
	<path fill="#184780" d="M94.608-346.185c1.564,1.129,7.007,4.034,9.012,4.561l0.317-0.718c-1.968-0.502-7.427-3.415-8.902-4.569
		L94.608-346.185z"/>
	<path fill="#184780" d="M90.794-339.141c-0.272,2.378,0.008,5.726,2.346,6.641c2.183,0.878,6.571-0.742,7.235-1.943l-0.294,0.825
		c-0.922,1.564-5.34,2.559-7.354,1.767c-2.625-1.073-3.09-5.465-2.515-6.177L90.794-339.141z"/>
	<path fill="#184780" d="M98.363-352.775c1.068-1.648,4.358-1.851,5.287-1.364c2.604,1.113,3.377,4.417,2.544,6.401l0.73-1.604
		c0.693-2.05-0.782-4.658-2.875-5.521c-1.357-0.537-4.507-0.438-5.473,1.107L98.363-352.775z"/>
	<path fill="#184780" d="M70.609-300.008c1.785-1.63,5.724-2.211,7.464-0.855c2.98,2.615,2.302,7.235,1.077,9.891l-0.738-0.427
		c1.541-3.552,1.18-7.14-0.811-8.784c-1.697-1.361-5.207-0.396-6.513,0.863L70.609-300.008z"/>
	<path fill="#184780" d="M129.92-380.768c0,1.35-1.062,2.471-2.744,2.471c-1.533,0-2.625-1.047-2.625-2.578l0.664,0.107
		c0.052,1.11,0.937,1.789,1.887,1.789c1.298,0,2.109-0.679,2.109-1.789H129.92z"/>
	<path fill="#184780" d="M129.212-380.768c-0.058-0.933-0.944-1.811-1.946-1.843c-1.239,0.033-2.05,0.866-2.05,1.843l-0.664-0.107
		c0-1.221,1.091-2.47,2.744-2.47c1.386,0,2.625,1.249,2.625,2.577H129.212z"/>
	<path fill="#184780" d="M133.771-392.66c0,1.394-1.047,2.463-2.67,2.463c-1.608-0.058-2.654-0.952-2.7-2.5h0.678
		c0,1.105,0.989,1.917,1.881,1.917c1.401,0,2.206-0.812,2.103-1.736L133.771-392.66z"/>
	<path fill="#184780" d="M133.063-392.516c0-1.067-0.841-1.988-1.962-1.988c-1.181,0-2.036,0.921-2.021,1.807h-0.678
		c0-1.232,1.091-2.39,2.596-2.453c1.535,0.063,2.773,1.125,2.773,2.489L133.063-392.516z"/>
	<path fill="#184780" d="M123.313-387.922c0,1.225,0.678,2.099,1.651,2.185c1.313-0.085,2.014-1.055,2.014-2.018
		c0-1.076-0.626-2.058-1.71-2.058c-0.274,0-0.922,0.155-1.35,0.453l0.243-0.726c0,0,0.716-0.295,0.944-0.295
		c1.541,0,2.507,0.723,2.507,2.459c0,1.262-0.966,2.767-2.619,2.767c-1.268,0-1.696-0.716-2.183-1.977L123.313-387.922z"/>
	<path fill="#184780" d="M135.511-386.133c-0.221-0.759-0.937-1.334-1.696-1.298c-0.782,0-1.71,0.579-1.755,1.465
		c0,1.201,1.003,1.788,1.888,1.788c0.354,0,0.988-0.054,1.342-0.535l-0.082,0.831c-1.195,0.539-3.783,0.435-3.783-1.988
		c0-1.021,0.937-2.375,2.405-2.316c0.604-0.06,1.792,0.624,2.05,1.121L135.511-386.133z"/>
	<path fill="#184780" d="M112.081-334.049c-0.052,2.04-1.719,2.902-3.268,2.902c-1.511,0-2.751-1.109-2.751-2.762h0.731
		c0,1.072,0.825,1.935,2.087,2.058c1.098-0.123,2.426-0.849,2.426-2.15L112.081-334.049z"/>
	<path fill="#184780" d="M111.306-334.001c0-1.114-0.937-2.331-2.139-2.331c-0.899,0-2.374,0.775-2.374,2.423h-0.731
		c-0.037-1.948,1.262-3.101,3.179-3.101c1.475-0.066,2.789,1.069,2.84,2.957L111.306-334.001z"/>
	<path fill="#184780" d="M109.24-341.708c0,1.935-1.623,2.986-3.149,2.986c-1.467,0-2.676-1.22-2.603-2.902l0.708-0.084
		c-0.038,1.018,0.885,2.301,2.058,2.269c1.069,0,2.234-0.728,2.234-2.221L109.24-341.708z"/>
	<path fill="#184780" d="M108.488-341.66c-0.03-1.021-0.871-2.29-2.234-2.183c-0.819-0.059-2.102,0.812-2.058,2.135l-0.708,0.088
		c-0.082-1.555,1.217-3.072,3.112-3.108c1.268,0,2.64,1.018,2.64,3.02L108.488-341.66z"/>
	<polygon fill="#184780" points="109.831,-356.769 134.014,-380.097 133.063,-378.632 109.978,-356.226 	"/>
	<polygon fill="#184780" points="123.18,-350.005 123.696,-350.562 121.719,-384.179 121.232,-382.711 	"/>
	<polygon fill="#184780" points="86.953,-302.844 114.669,-325.951 114.344,-324.638 86.524,-301.438 	"/>
	<polygon fill="#184780" points="103.62,-296.114 104.343,-296.505 100.568,-334.355 99.934,-332.924 	"/>
	<path fill="#184780" d="M118.238-350.688c0.715-0.837,1.033-1.658,1.069-2.485c-0.036-1.6-0.988-3.153-3.238-3.153
		c-1.637,0-3.716,1.368-3.215,3.879l-0.774,0.101c-0.443-1.984,1.024-4.758,4.152-4.758c2.212,0,3.924,1.412,3.924,3.636
		c0,0.973-0.546,2.375-1.35,3.116L118.238-350.688z"/>
	<path fill="#184780" d="M97.632-296.353c0.944-0.878,1.497-1.94,1.467-2.722c0.03-1.884-1.114-3.596-3.665-3.596
		c-2.287,0-4.102,1.461-3.813,4.466l-0.93-0.088c-0.272-2.78,1.469-5.233,4.765-5.281c2.706,0,4.521,1.537,4.521,4.06
		c0,1.553-0.546,2.427-1.682,3.577L97.632-296.353z"/>
	<path fill="#184780" d="M111.306-328.433c-0.294,2.593-1.903,4.366-4.417,4.366c-2.028,0-3.754-1.402-3.754-4.122
		c0-0.908,0.516-2.187,1.239-2.755l0.648,0.483c-0.559,0.624-0.973,1.302-0.973,2.127c0,1.899,0.937,3.342,3.142,3.3
		c2.316,0.042,3.179-1.931,3.179-3.44L111.306-328.433z"/>
	<path fill="#184780" d="M95.213-292.331c0-1.457-1.27-2.67-2.789-2.67c-1.225-0.036-2.626,0.686-2.581,2.338l-0.797,0.048
		c-0.044-1.925,1.328-3.004,3.57-2.968c1.149,0,3.333,1.169,3.333,3.167L95.213-292.331z"/>
	<path fill="#184780" d="M95.95-292.418c0.03,1.755-1.209,3.138-3.525,3.186c-2.006,0-3.422-1.43-3.378-3.388l0.797-0.038
		c-0.045,1.397,1.076,2.708,2.581,2.666c2.043,0,2.789-1.269,2.789-2.346L95.95-292.418z"/>
	<path fill="#184780" d="M115.945-346.292c-0.03-1.254-0.981-2.076-2.28-2.076c-0.98,0-1.947,0.45-1.947,2.131h-0.827
		c-0.014-1.682,1.062-2.854,2.966-2.854c1.283,0,2.921,0.958,2.921,2.854L115.945-346.292z"/>
	<path fill="#184780" d="M116.779-346.244c0,1.91-1.638,2.677-3.143,2.677c-1.555,0-2.758-1.014-2.744-2.677h0.827
		c0,1.021,0.738,2.051,2.021,2.051c1.107,0,2.176-0.675,2.206-2.099L116.779-346.244z"/>
	<path fill="#184780" d="M113.445-338.264c-0.06-1.755,1.356-2.92,3.215-2.92c1.372,0,2.612,0.955,2.648,2.821h-0.745
		c-0.028-1.076-0.804-2.135-2.108-2.117c-0.827-0.018-2.199,0.746-2.199,2.165L113.445-338.264z"/>
	<path fill="#184780" d="M119.308-338.363c0,1.97-1.276,2.803-3.06,2.843c-1.447,0.063-2.862-1.239-2.803-2.744l0.811-0.048
		c0,1,0.988,2.024,2.199,2.08c1.076-0.056,2.08-0.777,2.108-2.131H119.308z"/>
	<polygon fill="#184780" points="72.202,-305.872 71.538,-304.703 71.361,-406.773 71.973,-406.773 	"/>
	<polygon fill="#184780" points="78.309,-316.82 77.556,-315.47 77.379,-400.726 78.102,-400.726 	"/>
	<polygon fill="#184780" points="84.268,-327.75 83.56,-326.279 83.383,-396.256 84.164,-396.215 	"/>
	<polygon fill="#184780" points="90.389,-338.562 89.623,-337.113 89.475,-393.487 90.242,-393.487 	"/>
	<polygon fill="#184780" points="96.422,-349.481 95.625,-347.83 95.567,-392.516 96.29,-392.516 	"/>
	<polygon fill="#184780" points="102.514,-360.254 101.615,-358.608 101.556,-392.76 102.411,-392.819 	"/>
	<polygon fill="#184780" points="108.488,-371.212 107.721,-369.457 107.618,-394.024 108.488,-394.087 	"/>
	<polygon fill="#184780" points="114.492,-382.047 113.761,-380.151 113.739,-397.37 114.396,-397.406 	"/>
	<path fill="#184780" d="M82.114-202.856l-7.287-14.095c-1.151-2.219-2.729-3.201-4.942-3.201H66.39v17.296h-6.173v-38.839h10.775
		c2.972,0,4.189,0.111,6.054,0.348c5.421,0.752,8.785,4.41,8.785,9.557c0,4.927-3.6,8.954-8.837,9.833
		c1.741,0.472,2.789,1.334,3.777,3.134l8.688,15.968H82.114z M77.453-235.596c-1.334-1.098-2.971-1.459-6.054-1.459H66.39v12.419
		h4.72c5.302,0,8.378-2.449,8.378-6.579C79.488-232.978,78.736-234.549,77.453-235.596"/>
	<path fill="#184780" d="M97.071-235.817c-1.873,0-3.377-1.461-3.377-3.318c0-1.867,1.505-3.386,3.377-3.386
		c1.867,0,3.32,1.519,3.32,3.386C100.391-237.278,98.938-235.817,97.071-235.817 M94.218-230.241h5.597v27.376h-5.597V-230.241z"/>
	<path fill="#184780" d="M126.765-202.222c-2.847,0-4.721-1.63-5.001-4.419c-3.274,2.966-6.062,4.308-9.026,4.308
		c-3.732,0-6.594-2.905-6.594-6.829c0-5.221,5.075-8.962,15.208-11.107v-1.276c0-3.443-0.937-4.728-3.497-4.728
		c-2.33,0-4.882,1.115-8.614,3.674l-2.33-3.445c1.165-0.921,1.564-1.291,3.023-2.087c3.792-2.153,6.527-2.964,9.485-2.964
		c2.98,0,5.243,1.159,6.475,3.312c0.812,1.334,1.048,2.854,1.048,6.46v1.822v8.364v1.637c0,0.819,0.117,1.513,0.346,2.036
		c0.288,0.531,0.937,0.877,1.689,0.877c0.412,0,0.759-0.052,1.452-0.228l0.583,3.539
		C129.095-202.407,128.335-202.222,126.765-202.222 M121.351-216.435c-6.521,1.815-9.61,3.909-9.61,6.645
		c0,1.579,1.106,2.737,2.619,2.737c2.102,0,4.602-1.401,6.992-3.895V-216.435z"/>
	<rect x="135.32" y="-244.432" fill="#184780" width="5.65" height="41.567"/>
	<path fill="#184780" d="M158.08-202.282c-2.448,0-4.129-0.472-5.531-1.513c-0.753-0.581-1.336-1.408-1.623-2.271
		c-0.414-1.284-0.473-1.682-0.473-4.839v-15.428h-4.72v-3.909h4.72v-7.952h5.59v7.952h7.169v3.909h-7.169v14.5
		c0,1.519,0.052,2.324,0.177,2.964c0.348,1.401,1.682,2.109,4.02,2.109c0.863,0,1.623-0.058,2.972-0.354v4.086
		C160.875-202.407,159.718-202.282,158.08-202.282"/>
	<path fill="#184780" d="M186.002-202.222c-2.854,0-4.72-1.63-5.008-4.419c-3.259,2.966-6.054,4.308-9.028,4.308
		c-3.724,0-6.585-2.905-6.585-6.829c0-5.221,5.074-8.962,15.201-11.107v-1.276c0-3.443-0.922-4.728-3.489-4.728
		c-2.332,0-4.883,1.115-8.615,3.674l-2.33-3.445c1.165-0.921,1.571-1.291,3.03-2.087c3.784-2.153,6.521-2.964,9.493-2.964
		c2.965,0,5.235,1.159,6.468,3.312c0.803,1.334,1.04,2.854,1.04,6.46v1.822v8.364v1.637c0,0.819,0.111,1.513,0.339,2.036
		c0.294,0.531,0.937,0.877,1.696,0.877c0.398,0,0.751-0.052,1.461-0.228l0.589,3.539
		C188.333-202.407,187.581-202.222,186.002-202.222 M180.583-216.435c-6.513,1.815-9.604,3.909-9.604,6.645
		c0,1.579,1.115,2.737,2.619,2.737c2.103,0,4.602-1.401,6.985-3.895V-216.435z"/>
	<path fill="#184780" d="M199.854-202.222c-3.267,0-4.417-0.185-7.39-1.056l0.929-4.129c2.618,0.59,3.725,0.708,5.93,0.708
		c4.668,0,7.463-1.461,7.463-3.851c0-1.696-1.283-2.847-4.603-4.233c-4.366-1.821-5.472-2.523-6.977-3.917
		c-1.181-1.054-1.873-2.736-1.873-4.432c0-4.823,4.483-7.966,11.298-7.966c2.559,0,3.835,0.163,6.992,0.856l-1.004,4.085
		c-2.729-0.59-3.835-0.709-5.752-0.709c-3.445,0-5.598,1.181-5.598,3.04c0,1.519,1.519,2.729,5.074,4.071
		c6.048,2.271,8.505,4.779,8.505,8.614C212.85-205.592,207.892-202.222,199.854-202.222"/>
	<path fill="#184780" d="M252.779-202.856v-15.843c0-1.165-0.074-2.515-0.133-3.37c-0.169-2.515-1.505-3.865-3.724-3.865
		c-2.56,0-5.642,1.77-8.489,4.838v18.239h-5.591v-27.384h5.465v4.137c3.672-3.489,6.814-4.994,10.362-4.994
		c2.448,0,4.491,0.856,5.827,2.435c1.394,1.636,1.865,3.606,1.865,7.979v17.827H252.779z"/>
	<path fill="#184780" d="M284.581-202.222c-2.869,0-4.72-1.63-5.015-4.419c-3.268,2.966-6.063,4.308-9.035,4.308
		c-3.724,0-6.571-2.905-6.571-6.829c0-5.221,5.06-8.962,15.193-11.107v-1.276c0-3.443-0.93-4.728-3.496-4.728
		c-2.332,0-4.898,1.115-8.616,3.674l-2.33-3.445c1.159-0.921,1.571-1.291,3.032-2.087c3.783-2.153,6.519-2.964,9.491-2.964
		c2.966,0,5.237,1.159,6.461,3.312c0.811,1.334,1.055,2.854,1.055,6.46v1.822v8.364v1.637c0,0.819,0.104,1.513,0.346,2.036
		c0.288,0.531,0.929,0.877,1.682,0.877c0.414,0,0.76-0.052,1.46-0.228l0.576,3.539C286.896-202.407,286.145-202.222,284.581-202.222
		 M279.153-216.435c-6.527,1.815-9.61,3.909-9.61,6.645c0,1.579,1.113,2.737,2.618,2.737c2.102,0,4.603-1.401,6.992-3.895V-216.435z
		"/>
	<path fill="#184780" d="M325.211-202.856v-16.543v-1.815c0-3.082-1.357-4.646-3.975-4.646c-2.729,0-5.636,1.622-8.851,5.008v17.996
		h-5.583v-41.575h5.583v18.217c1.865-1.571,2.625-2.153,4.026-2.905c2.198-1.292,4.484-1.918,6.521-1.918
		c1.807,0,3.489,0.457,4.779,1.386c2.271,1.579,3.082,3.548,3.082,7.523v19.272H325.211z"/>
	<path fill="#184780" d="M339.173-202.856l0.059-38.847h22.71v4.825h-16.589v11.358h15.71v4.72h-15.71v12.863h17.694v5.082H339.173z
		 M347.034-244.616l11.521-5.066l-2.678-4.595l-10.657,6.454L347.034-244.616z"/>
	<path fill="#184780" d="M372.354-235.817c-1.866,0-3.371-1.461-3.371-3.318c0-1.867,1.505-3.386,3.371-3.386
		c1.865,0,3.326,1.519,3.326,3.386C375.681-237.278,374.22-235.817,372.354-235.817 M369.5-230.241h5.591v27.376H369.5V-230.241z"/>
	<path fill="#184780" d="M398.145-225.286c-0.929-0.346-1.282-0.398-1.799-0.398c-2.39,0-5.531,3.142-7.574,7.619v15.208h-5.583
		v-27.37h5.457v5.398c2.169-3.833,5.075-5.973,8.157-5.973c0.988,0,1.461,0.118,2.626,0.515L398.145-225.286z"/>
	<path fill="#184780" d="M414.217-202.171c-7.339,0-12.222-5.517-12.222-13.91c0-8.748,5.635-15.016,13.497-15.016
		c7.036,0,11.049,4.883,11.049,13.386v1.461h-18.438c0.103,6.048,2.61,9.315,7.109,9.315c1.683,0,3.481-0.414,5.237-1.225
		c1.165-0.523,1.916-0.937,4.129-2.39l2.39,3.319C423.354-204.148,418.34-202.171,414.217-202.171 M415.094-227.04
		c-3.385,0-6.063,2.758-6.83,7.066l12.583-0.296C420.735-224.526,418.574-227.04,415.094-227.04"/>
	<path fill="#184780" d="M451.756-202.222c-2.847,0-4.712-1.63-4.992-4.419c-3.274,2.966-6.07,4.308-9.028,4.308
		c-3.745,0-6.593-2.905-6.593-6.829c0-5.221,5.074-8.962,15.201-11.107v-1.276c0-3.443-0.922-4.728-3.489-4.728
		c-2.331,0-4.896,1.115-8.622,3.674l-2.315-3.445c1.15-0.921,1.57-1.291,3.016-2.087c3.791-2.153,6.521-2.964,9.501-2.964
		c2.964,0,5.229,1.159,6.445,3.312c0.819,1.334,1.062,2.854,1.062,6.46v1.822v8.364v1.637c0,0.819,0.104,1.513,0.34,2.036
		c0.303,0.531,0.944,0.877,1.71,0.877c0.392,0,0.746-0.052,1.439-0.228l0.582,3.539
		C454.094-202.407,453.334-202.222,451.756-202.222 M446.344-216.435c-6.513,1.815-9.604,3.909-9.604,6.645
		c0,1.579,1.106,2.737,2.626,2.737c2.087,0,4.595-1.401,6.978-3.895V-216.435z"/>
	<path fill="#184780" d="M478.255-202.856v-15.843c0-1.165-0.058-2.515-0.131-3.37c-0.163-2.515-1.505-3.865-3.71-3.865
		c-2.566,0-5.65,1.77-8.505,4.838v18.239h-5.597v-27.384h5.479v4.137c3.673-3.489,6.807-4.994,10.369-4.994
		c2.434,0,4.47,0.856,5.819,2.435c1.394,1.636,1.865,3.606,1.865,7.979v17.827H478.255z"/>
	<path fill="#184780" d="M507.506-202.856v-15.843c0-1.165-0.06-2.515-0.117-3.37c-0.185-2.515-1.52-3.865-3.731-3.865
		c-2.553,0-5.65,1.77-8.512,4.838v18.239h-5.576v-27.384h5.465v4.137c3.673-3.489,6.815-4.994,10.378-4.994
		c2.448,0,4.476,0.856,5.812,2.435c1.401,1.636,1.865,3.606,1.865,7.979v17.827H507.506z"/>
	<path fill="#184780" d="M79.26-133.523c-12.228,0-20.784-8.156-20.784-19.794c0-12.008,9.433-20.68,22.362-20.68
		c4.477,0,6.454,0.338,11.41,2.161l-1.578,4.55c-4.072-1.416-5.752-1.755-9.255-1.755c-9.964,0-16.536,6.173-16.536,15.422
		c0,8.975,6.232,15.149,15.26,15.149c2.551,0,3.658-0.243,6.459-1.129v-13.439h6.063v16.596
		C86.776-134.052,84.386-133.523,79.26-133.523"/>
	<path fill="#184780" d="M111.224-133.802c-7.515,0-12.929-5.96-12.929-14.16c0-8.556,5.753-14.736,13.615-14.736
		c7.457,0,12.759,5.944,12.759,14.204C124.669-140.041,118.961-133.802,111.224-133.802 M111.335-158.037
		c-4.13,0-7.155,3.894-7.155,9.249c0,6.061,3.025,10.191,7.449,10.191c4.308,0,7.155-3.717,7.155-9.365
		C118.785-154.033,115.827-158.037,111.335-158.037"/>
	<polygon fill="#184780" points="142.046,-134.466 136.338,-134.466 125.393,-161.829 131.676,-161.829 139.539,-140.979 
		147.755,-161.829 153.338,-161.829 	"/>
	<path fill="#184780" d="M166.96-133.758c-7.332,0-12.229-5.531-12.229-13.909c0-8.74,5.649-15.038,13.511-15.038
		c7.044,0,11.063,4.903,11.063,13.393v1.459h-18.461c0.111,6.056,2.626,9.332,7.103,9.332c1.696,0,3.503-0.414,5.237-1.24
		c1.179-0.517,1.932-0.93,4.137-2.382l2.396,3.312C176.105-135.734,171.104-133.758,166.96-133.758 M167.83-158.626
		c-3.37,0-6.04,2.744-6.8,7.042l12.567-0.274C173.487-156.12,171.326-158.626,167.83-158.626"/>
	<path fill="#184780" d="M200.605-156.879c-0.929-0.346-1.283-0.406-1.799-0.406c-2.382,0-5.531,3.142-7.575,7.634v15.185h-5.597
		v-27.363h5.494v5.422c2.147-3.844,5.053-5.996,8.143-5.996c0.996,0,1.453,0.116,2.618,0.53L200.605-156.879z"/>
	<path fill="#184780" d="M224.015-134.466v-15.829c0-1.165-0.06-2.506-0.125-3.384c-0.169-2.485-1.513-3.841-3.724-3.841
		c-2.552,0-5.636,1.754-8.497,4.836v18.218h-5.583v-27.363h5.465v4.131c3.665-3.488,6.813-5.007,10.369-5.007
		c2.449,0,4.485,0.876,5.827,2.454c1.386,1.625,1.859,3.614,1.859,7.98v17.805H224.015z"/>
	<path fill="#184780" d="M270.185-134.466v-16.647c0-2.454,0-2.979-0.177-3.842c-0.295-1.563-1.401-2.565-2.906-2.565
		c-1.291,0-2.744,0.529-4.085,1.527c-1.564,1.098-2.913,2.263-3.658,3.309v18.218h-5.473v-16.286c0-1.873-0.058-3.098-0.183-3.85
		c-0.229-1.754-1.336-2.854-2.958-2.854c-2.227,0-5.428,1.971-7.811,4.771v18.218h-5.465v-27.363h5.407v3.963
		c3.326-3.255,6.35-4.774,9.551-4.774c3.437,0,5.575,1.623,6.461,5.001c3.665-3.599,6.512-5.066,9.854-5.066
		c1.851,0,3.421,0.537,4.638,1.583c1.232,1.101,1.933,2.671,2.161,4.655c0.119,1.098,0.185,2.677,0.185,4.469v17.531H270.185z"/>
	<path fill="#184780" d="M294.161-133.758c-7.346,0-12.221-5.531-12.221-13.909c0-8.74,5.65-15.038,13.497-15.038
		c7.058,0,11.078,4.903,11.078,13.393v1.459h-18.468c0.118,6.056,2.611,9.332,7.102,9.332c1.689,0,3.489-0.414,5.244-1.24
		c1.157-0.517,1.917-0.93,4.13-2.382l2.39,3.312C303.3-135.734,298.298-133.758,294.161-133.758 M295.04-158.626
		c-3.378,0-6.063,2.744-6.815,7.042l12.567-0.274C300.688-156.12,298.535-158.626,295.04-158.626"/>
	<path fill="#184780" d="M330.787-134.466v-15.829c0-1.165-0.066-2.506-0.126-3.384c-0.176-2.485-1.504-3.841-3.732-3.841
		c-2.551,0-5.641,1.754-8.495,4.836v18.218h-5.591v-27.363h5.472v4.131c3.674-3.488,6.815-5.007,10.37-5.007
		c2.434,0,4.478,0.876,5.827,2.454c1.401,1.625,1.858,3.614,1.858,7.98v17.805H330.787z"/>
	<path fill="#184780" d="M352.492-133.877c-2.441,0-4.13-0.457-5.539-1.519c-0.76-0.589-1.334-1.4-1.622-2.271
		c-0.413-1.276-0.472-1.682-0.472-4.823v-15.436h-4.72v-3.903h4.72v-7.979h5.597v7.979h7.155v3.903h-7.155v14.506
		c0,1.503,0.06,2.33,0.171,2.966c0.36,1.385,1.681,2.095,4.019,2.095c0.87,0,1.638-0.06,2.966-0.354v4.077
		C355.295-133.993,354.116-133.877,352.492-133.877"/>
	<path fill="#184780" d="M390.129-133.802c-7.501,0-12.921-5.96-12.921-14.16c0-8.556,5.76-14.736,13.621-14.736
		c7.449,0,12.759,5.944,12.759,14.204C403.588-140.041,397.88-133.802,390.129-133.802 M390.239-158.037
		c-4.131,0-7.146,3.894-7.146,9.249c0,6.061,3.016,10.191,7.449,10.191c4.307,0,7.161-3.717,7.161-9.365
		C397.703-154.033,394.73-158.037,390.239-158.037"/>
	<path fill="#184780" d="M424.048-171.836c-1.637-0.348-2.228-0.414-3.378-0.414c-2.278,0-4.02,0.877-4.956,2.441
		c-0.583,0.988-0.812,2.463-0.812,5.008v2.971h7.169v3.963h-7.169v23.4h-5.599v-23.4h-4.771v-3.963h4.771v-2.801
		c0-3.659,0.406-5.636,1.453-7.62c1.52-2.788,5.016-4.491,9.322-4.491c1.919,0,2.804,0.183,5.016,0.825L424.048-171.836z"/>
	<rect x="443.666" y="-173.305" fill="#184780" width="6.217" height="38.839"/>
	<path fill="#184780" d="M471.271-156.879c-0.937-0.346-1.269-0.406-1.8-0.406c-2.396,0-5.545,3.142-7.574,7.634v15.185h-5.591
		v-27.363h5.473v5.422c2.147-3.844,5.06-5.996,8.157-5.996c0.988,0,1.445,0.116,2.61,0.53L471.271-156.879z"/>
	<path fill="#184780" d="M485.218-133.758c-7.346,0-12.243-5.531-12.243-13.909c0-8.74,5.664-15.038,13.527-15.038
		c7.035,0,11.063,4.903,11.063,13.393v1.459h-18.454c0.104,6.056,2.597,9.332,7.088,9.332c1.688,0,3.503-0.414,5.251-1.24
		c1.157-0.517,1.91-0.93,4.123-2.382l2.39,3.312C494.349-135.734,489.349-133.758,485.218-133.758 M486.096-158.626
		c-3.385,0-6.069,2.744-6.822,7.042l12.582-0.274C491.738-156.12,489.569-158.626,486.096-158.626"/>
	<rect x="503.066" y="-176.033" fill="#184780" width="5.65" height="41.567"/>
	<path fill="#184780" d="M535.665-133.802c-2.847,0-4.72-1.653-5-4.449c-3.26,2.974-6.063,4.317-9.02,4.317
		c-3.74,0-6.601-2.922-6.601-6.815c0-5.237,5.058-8.954,15.215-11.109v-1.289c0-3.431-0.944-4.72-3.511-4.72
		c-2.316,0-4.883,1.113-8.615,3.663l-2.338-3.444c1.181-0.915,1.593-1.276,3.038-2.072c3.791-2.154,6.521-2.986,9.493-2.986
		c2.972,0,5.243,1.165,6.468,3.317c0.811,1.351,1.033,2.871,1.033,6.469v1.806v8.386v1.638c0,0.812,0.132,1.491,0.354,2.021
		c0.295,0.548,0.943,0.878,1.696,0.878c0.412,0,0.752-0.06,1.46-0.228l0.576,3.555C537.995-133.993,537.236-133.802,535.665-133.802
		 M530.26-148.021c-6.527,1.798-9.61,3.909-9.61,6.629c0,1.571,1.099,2.751,2.61,2.751c2.095,0,4.595-1.4,7-3.909V-148.021z"/>
	<path fill="#184780" d="M562.157-134.466v-15.829c0-1.165-0.074-2.506-0.134-3.384c-0.161-2.485-1.497-3.841-3.716-3.841
		c-2.553,0-5.649,1.754-8.511,4.836v18.218h-5.576v-27.363h5.473v4.131c3.666-3.488,6.814-5.007,10.37-5.007
		c2.434,0,4.497,0.876,5.818,2.454c1.387,1.625,1.865,3.614,1.865,7.98v17.805H562.157z"/>
	<path fill="#184780" d="M592.632-134.466v-4.247c-0.53,0.522-0.937,0.987-1.181,1.225c-2.434,2.33-5.752,3.73-8.908,3.73
		c-6.336,0-10.71-5.531-10.71-13.63c0-9.019,5.008-15.317,12.111-15.317c3.511,0,6.003,1.356,8.555,4.609v-17.937h5.604v41.567
		H592.632z M592.499-152.092c-2.323-3.842-4.94-5.709-8.039-5.709c-3.835,0-6.756,4.071-6.756,9.543
		c0,5.591,2.751,9.375,6.712,9.375c3.039,0,5.76-1.623,8.083-4.831V-152.092z"/>
	<rect x="8" y="-456.039" fill="none" width="737.123" height="354.039"/>
</g>
</svg>
